<svg xmlns="http://www.w3.org/2000/svg" viewBox="0 0 630.21 197.18"><defs><style>.cls-1{fill:#fff;}</style></defs><g id="Layer_2" data-name="Layer 2"><g id="Layer_1-2" data-name="Layer 1"><path class="cls-1" d="M37.05,167.8c0,9.26,4.24,10.59,7.68,10.59a15.63,15.63,0,0,0,6.88-1.85c4.77-1.59,8.73,4,8.73,9.26,0,2.65-1.05,5.56-3.43,6.89-4.51,2.64-9.53,4.49-17.74,4.49-15.35,0-23.29-6.88-23.29-26.2V122.81H9c-5.56,0-9-3.18-9-9s3.7-9,9-9h6.88V92.1c0-7.4,5.29-11.38,10.58-11.38s10.59,4,10.59,11.38v12.71H49.23c6.08,0,9.26,4,9.26,9,0,6.08-3.71,9-9.53,9H37.05Z"/><path class="cls-1" d="M77.82,10.59C77.82,3.7,81.79,0,88.41,0S99,3.7,99,10.59V119.37c6.35-11.12,16.93-17.47,31.23-17.47,28.32,0,43.41,21.7,43.41,47.11,0,25.67-15.09,48.17-43.68,48.17-15.61,0-25.67-7.14-32-19.05l.53,8.47c0,7.4-4,10.58-10,10.58-7.42,0-10.59-4.76-10.59-10.58Zm74.11,139c0-16.14-9.79-28.85-26.47-28.85-16.94,0-26.46,13-26.46,28.58s9.52,29.12,26.46,29.12C142.14,178.39,151.93,165.68,151.93,149.54Z"/><path class="cls-1" d="M193.75,112.49a10.45,10.45,0,0,1,10.59-10.59,10.61,10.61,0,0,1,10.58,10.59v2.37a30,30,0,0,1,24.88-13c6.35,0,12.17,2.91,12.17,9.79,0,5.29-2.91,9.27-8.2,9.27-2.91,0-4-1.07-8.2-1.07-14,0-20.65,9.27-20.65,31.5V186.6a10.27,10.27,0,0,1-10.58,10.58c-5.29,0-10.59-3.7-10.59-10.58Z"/><path class="cls-1" d="M326.88,145c0-17.73-7.14-25.67-20.38-25.67-12.7,0-21.17,8.47-21.17,25.67V186.6c0,7.14-3.7,10.58-10.59,10.58-6.61,0-10.59-3.44-10.59-10.58V112.49c0-6.62,4.24-10.59,11.12-10.59,6.62,0,10.06,3.44,10.06,10.59v3.17c6.35-9.26,16.94-13.76,27.26-13.76,25.14,0,35.47,17.73,35.47,43.67v41c0,6.09-3.44,10.58-10.85,10.58-7.15,0-10.33-4.49-10.33-10.58Z"/><path class="cls-1" d="M441.76,181C435.4,191.62,424,197.18,410,197.18c-27.8,0-43.68-20.91-43.68-47.64,0-26.21,15.62-47.64,44.47-47.64,14,0,24.35,5.82,30.44,14.29v-3.7c0-5.83,4.23-10.59,10.84-10.59,5.56,0,10.06,3.44,10.06,10.59V186.6c0,7.14-4.23,10.58-10.06,10.58-5.55,0-10.31-3.18-10.31-10.58Zm-.8-31.5c0-15.62-9.27-28.85-26.21-28.85s-26.46,13-26.46,29.12,9.79,28.58,26.2,28.58C431.69,178.39,441,165.16,441,149.54Z"/><path class="cls-1" d="M608.77,145.3c0-17.73-5.56-25.67-18.79-25.67-13.76,0-20.65,8.47-20.65,25.67v41c0,7.15-4,10.85-10.84,10.85-6.63,0-10.6-3.44-10.6-10.85V144.78c0-17.47-5.55-25.15-18.79-25.15-13,0-20.38,7.42-20.38,23V186.6c0,6.88-4.23,10.58-10.85,10.58s-10.58-3.44-10.58-10.58V113c0-7.42,5-11.12,10.84-11.12s10.59,4,10.59,10v3.45c4.5-7.94,14.29-13.5,26.2-13.5,15.1,0,24.88,6.88,29.91,18.52,4.5-11.64,15.35-18.52,29.64-18.52,26.48,0,35.74,18,35.74,43.4v41c0,7.41-4.24,10.85-10.85,10.85s-10.59-3.44-10.59-10.85Z"/></g></g></svg>